<svg width="230px" height="74px" id="Ebene_1" data-name="Ebene 1" xmlns="http://www.w3.org/2000/svg" viewBox="0 0 250 80"><defs><style>.cls-1{fill:#fff;}.cls-2{fill:#e10e1c;}.cls-3{fill:#1d1d1b;}.cls-4{fill:#b15723;}.cls-5{fill:#fef07e;}</style></defs><title>Zeichenfläche 1</title><path class="cls-1" d="M191.42,40h0Z"/><path class="cls-2" d="M238.9,26a2.43,2.43,0,0,0-.53-.81,2.55,2.55,0,0,0-.83-.56,2.51,2.51,0,0,0-1-.19,2.45,2.45,0,0,0-2.15,1.22,2.76,2.76,0,0,0-.27.64,2.55,2.55,0,0,0-.09.67,2.48,2.48,0,0,0,.19.94,2.43,2.43,0,0,0,.54.81,2.55,2.55,0,0,0,.82.56,2.44,2.44,0,0,0,1,.2,2.5,2.5,0,0,0,1-.19,2.58,2.58,0,0,0,.83-.55,2.33,2.33,0,0,0,.55-.81,2.49,2.49,0,0,0,.19-1,2.55,2.55,0,0,0-.18-1m-.39,1.78a2,2,0,0,1-.46.66,2.28,2.28,0,0,1-.7.45,2.09,2.09,0,0,1-.79.16,2.06,2.06,0,0,1-.8-.16,2.13,2.13,0,0,1-.69-.47,2,2,0,0,1-.61-1.46,2.06,2.06,0,0,1,.17-.8,2.22,2.22,0,0,1,.48-.7,2,2,0,0,1,.66-.44,2.07,2.07,0,0,1,.8-.15,2.05,2.05,0,0,1,1.51.63,2,2,0,0,1,.45.68,2.24,2.24,0,0,1,.15.83,2,2,0,0,1-.16.78"/><path class="cls-2" d="M237.65,26.75a.73.73,0,0,0,.16-.47.67.67,0,0,0-.3-.6,1.65,1.65,0,0,0-.9-.2h-1.09v2.8h.67V27.12h.34l.54,1.15h.76L237.2,27a.85.85,0,0,0,.45-.27m-.68-.13a.82.82,0,0,1-.44.09h-.34v-.8h.3a.86.86,0,0,1,.47.1.35.35,0,0,1,.15.31.32.32,0,0,1-.14.29"/><path class="cls-2" d="M237.65,26.75a.73.73,0,0,0,.16-.47.67.67,0,0,0-.3-.6,1.65,1.65,0,0,0-.9-.2h-1.09v2.8h.67V27.12h.34l.54,1.15h.76L237.2,27a.85.85,0,0,0,.45-.27m-.68-.13a.82.82,0,0,1-.44.09h-.34v-.8h.3a.86.86,0,0,1,.47.1.35.35,0,0,1,.15.31.32.32,0,0,1-.14.29"/><path class="cls-2" d="M14.43,10.65c-1.3-.44-1.66-1.07-1.66-1.71a1.7,1.7,0,0,1,.63-1.3,3.09,3.09,0,0,1,1.68-.53,8.9,8.9,0,0,1,4,.77,7.23,7.23,0,0,1,2.67,1.85V3.32a14,14,0,0,0-6.92-2.18,8.3,8.3,0,0,0-4.67,1.33A7.2,7.2,0,0,0,6.74,8.91c.26,6.9,6.62,6.83,9,8,1.37.69,1.47,1.36,1.47,1.77A2.12,2.12,0,0,1,16.44,20a3,3,0,0,1-1.61.54,8.23,8.23,0,0,1-7.17-3.24l0,6.23a11.45,11.45,0,0,0,5.77,2.3c2.63.08,4.88-.26,6.69-1.79a7.63,7.63,0,0,0,2.65-6,6.18,6.18,0,0,0-1.28-3.75c-1.94-2.47-5.74-3.11-7-3.56"/><path class="cls-2" d="M74.48,4.66a7.38,7.38,0,0,0-6.36,4.47v-4H62.4V25.17h6.34V15c0-2,.83-4.21,3-4.21,1.94,0,2.28,1.91,2.31,3.71V25.17h6.34V13.41c0-3.23-.4-5.17-1.46-6.53a5.69,5.69,0,0,0-4.47-2.22"/><path class="cls-2" d="M179.59,39.08c-.92-.29-1.2-.7-1.2-1.25a1.43,1.43,0,0,1,.56-1.11,2.9,2.9,0,0,1,1.52-.45,8.45,8.45,0,0,1,3.65.66,5.64,5.64,0,0,1,2.09,1.28V32.7A13.23,13.23,0,0,0,180,30.84a7,7,0,0,0-4.14,1.05,7.22,7.22,0,0,0-3.08,5.69c.22,5.54,4.66,5.76,6.68,6.35,1.32.38,2.17.66,2.17,1.69,0,2.13-5.56,2.25-8.12-.69l0,5a10.64,10.64,0,0,0,5.21,2c2.37.07,4.4-.22,6-1.52a6.37,6.37,0,0,0,2.4-5.15,6.45,6.45,0,0,0-1-3.42c-1.87-2.46-5.22-2.33-6.46-2.72"/><path class="cls-2" d="M164.17,31.45V51.4h6V31.45a9.24,9.24,0,0,1-3,.47,8.09,8.09,0,0,1-2.93-.47"/><path class="cls-2" d="M167.37,26.37c-2,0-3.63,1-3.63,2.28s1.62,2.28,3.63,2.28,3.63-1,3.63-2.28-1.63-2.28-3.63-2.28"/><path class="cls-2" d="M207.62,31.45V51.4h6V31.45a9.25,9.25,0,0,1-3.05.47,8.09,8.09,0,0,1-2.93-.47"/><path class="cls-2" d="M210.81,26.37c-2,0-3.63,1-3.63,2.28s1.63,2.28,3.63,2.28,3.63-1,3.63-2.28-1.62-2.28-3.63-2.28"/><rect class="cls-2" x="103.71" y="1.8" width="6.21" height="23.36"/><path class="cls-2" d="M135.84,42V31.39H129.7V43.09c0,3.21.39,5.15,1.41,6.5a5.47,5.47,0,0,0,4.33,2.21,7.16,7.16,0,0,0,6.16-4.45v3.93h5.55V31.39h-5.76V41.46c0,2-1.19,4.19-3.3,4.19-1.88,0-2.21-1.9-2.24-3.7"/><polygon class="cls-2" points="226.91 31.45 223.16 38.61 223.16 27.95 217.09 27.95 217.09 51.29 223.35 51.29 223.35 44.53 226.85 51.29 234.1 51.29 228.14 41.42 234.16 31.45 226.91 31.45"/><path class="cls-2" d="M139.12,11.47a3.63,3.63,0,0,1,3.55,1.29V5.7A4.24,4.24,0,0,0,138.32,5c-2,.89-3,4.15-3,4.15V5.34H129.7V25.17h6.17V16.71s-.09-4.74,3.25-5.24"/><path class="cls-2" d="M157.87,31.09c-2,.89-3,4.15-3,4.15V31.39h-5.67v19.9h6.17V42.77s-.09-4.74,3.25-5.24a3.63,3.63,0,0,1,3.55,1.3V31.75a4.24,4.24,0,0,0-4.35-.66"/><path class="cls-2" d="M197.56,26.74h-3.3c-.53,5-5.54,6.68-5.54,6.68v3.95h3.05V45c0,9.73,9.85,7.08,11.4,4.48V45.26c-5.41,4.31-5.66-.94-5.66-.94v-7h6.23V31.7h-6.19Z"/><rect class="cls-2" x="145.37" y="10.48" width="8.9" height="4.16"/><path d="M191.42,40h0Z"/><path class="cls-2" d="M36.43,4.5c-3.68,0-5.67,3.53-6,4.09V5.19H24.69V29.82H31v-7a5.71,5.71,0,0,0,5,2.81c3.76,0,7.28-3.71,7.28-11.1,0-3.63-.84-10.05-6.82-10.05M36.29,19a3,3,0,0,1-2.57,1.29c-1.71,0-3.26-1.61-3.26-4.82s1.68-4.72,3.36-4.72A2.92,2.92,0,0,1,36.34,12a5.71,5.71,0,0,1,.89,3.42A6.06,6.06,0,0,1,36.29,19"/><path class="cls-2" d="M120,51.91c6.09,0,9.05-4.72,9.05-10.55S126.81,30.8,120,30.8c-6.56,0-9.05,4.72-9.05,10.55s2.9,10.55,9.05,10.55m0-15.14c2.68,0,3.55,2.23,3.55,5s-1.16,5-3.55,5-3.54-2.23-3.54-5,1-5,3.54-5"/><path class="cls-2" d="M128.71,12.34A8.46,8.46,0,0,0,120,4.63a9.27,9.27,0,0,0-3.92.89c-2.45,1.19-4.94,3.78-4.94,8.86C111.18,23,116,25.6,120,25.6a10.23,10.23,0,0,0,7.47-2.83V18.41a8.44,8.44,0,0,1-6.17,2.66A4,4,0,0,1,117,17.25H128.5A20.87,20.87,0,0,0,128.71,12.34Zm-4.32.42h-7.52s.12-3.12,3.75-3.12C124.5,9.65,124.39,12.76,124.39,12.76Z"/><path class="cls-2" d="M57.79,5.72c-2.88-1.75-7.36-1-8.22-.79a13.06,13.06,0,0,0-4.69,2.57v5.08a13.84,13.84,0,0,1,5.57-2.73c2.46-.47,3.88.21,4.37,1.1s0,2-1.56,2.38c0,0-2.56.5-3.48.71s-5,1.16-5.49,4.78,1,5.68,3.27,6.51c2,.75,5,.69,7.84-2.45v2.18h5.15V12.75S60.93,7.63,57.79,5.72ZM53.15,21c-2.32,1.16-3.55-.39-3.15-2,.23-.94,1.46-1.25,2.64-1.71a22.81,22.81,0,0,0,2.28-1.06S55.47,19.87,53.15,21Z"/><polygon class="cls-2" points="101.08 27.91 100.39 27.91 100.34 27.97 100.15 28.18 99.95 28.38 99.74 28.58 99.52 28.78 99.28 28.97 99.04 29.16 98.79 29.34 98.52 29.52 98.25 29.69 97.96 29.85 97.67 30.01 97.36 30.16 97.04 30.3 96.72 30.43 96.38 30.55 96.03 30.66 95.68 30.77 95.31 30.86 94.93 30.94 94.55 31.01 94.15 31.07 93.75 31.11 93.33 31.14 92.91 31.16 92.48 31.17 91.94 31.17 91.91 31.16 91.91 31.7 91.91 33.83 98.03 33.83 98.03 51.28 103.88 51.28 103.88 33.83 109.92 33.83 109.92 27.91 101.08 27.91"/><path class="cls-3" d="M81,44.79c-.57,0-1.52.81-2.5,1.53s-2.16,1.44-2.16,1.44,0-6.58-2.46-10c-1.19-1.7-2.74-1.83-4.82-1.78a8.13,8.13,0,0,0-6.28,3,3.77,3.77,0,0,0-2.52-2.65,11.39,11.39,0,0,0-2.58-.31,5.29,5.29,0,0,0-3.23.69c-1.29.89-1.06,1.59-1.45,2.2-.49.77-2.81,2-4.54,2.58a3.44,3.44,0,0,1-1.35.08c-3.59,0-6.32,3.55-5.41,5.21-.65.7-13,9.87-11.43,14.51.67,2,9.82-7.42,10.82-7.51a14.67,14.67,0,0,0,7.41-3.13s1-.26,2.22,1c.14,3.59,2,24,4.08,24.11.74,0,.56-4,.62-8.1.06-4.32.32-7.33.38-8.14.31,0,1.42,1.16,3.07,2.06s3.81,1.23,3.79,3.25c-.56,1.09-.18.57.69,2.18.24.45,1.27.44,2.14.44,2,0,4.26-.46,5.32-1.38a36.42,36.42,0,0,1-.12,6.44,43.1,43.1,0,0,1-1.35,6.41,18.08,18.08,0,0,0,2.68-4,39.07,39.07,0,0,0,3.8-15.71c5.85-4.3,4-8.46,4-8.46a9.88,9.88,0,0,0,1.84-2.58c.69-1.5.82-3.29-.67-3.33M68.29,49.26s0-3.89.59-4,1,4,1,4Z"/><path class="cls-4" d="M76.28,48.53a22.34,22.34,0,0,0,2-1.4c1.22-1,2.44-2,3-1.69a1.12,1.12,0,0,1,.47,1.44c-.13.11-.33-.57-.36.2s-.25,2.23-.54.88c-.11-.52-.38-.74-.47.07a2.24,2.24,0,0,1-.56,2.2c-.3.36-.19.41-.14.95a6.31,6.31,0,0,1-1.62,5c-.34.38-.09-.64,0-1.81a4.08,4.08,0,0,0-.46-2.47c-.33-.49-.31-.14-.22.7s.52,3.83-1.42,5.76c.36-3.47.34-9.83.34-9.83"/><path class="cls-1" d="M46.77,41.94a14.16,14.16,0,0,0-2.28,1.74A1.67,1.67,0,0,0,43,45.79c0,.13-.82.55-.84.5-.81-2.45,3.76-4.81,4.61-4.35"/><path class="cls-1" d="M48.44,41.9c-.55-.1-1.53,0-2.92,1.54s-2,2.66-1.67,3.21.91.86,2.09.25a6.39,6.39,0,0,0,3-2.78c.63-1.85-.48-2.23-.48-2.23"/><path class="cls-3" d="M48.14,43.75c-.24,0-.67,0-1.27.67s-.85,1.16-.73,1.4.32.51.91.11a6.09,6.09,0,0,0,1.24-1.19c.69-.85-.16-1-.16-1"/><path class="cls-4" d="M51.74,57.37c-.2-2.52-.18-5.13,0-5.13s.11,2.53.33,5.05a26.84,26.84,0,0,1,.22,4.94c-.19,0-.39-2.44-.58-4.87"/><path class="cls-4" d="M53.61,69.86c-.54-2.93-.87-6.22-1.06-6.16A33.07,33.07,0,0,0,53.39,70a23.07,23.07,0,0,0,1.21,4.5c.15-.05-.55-2.2-1-4.59"/><path class="cls-4" d="M69.26,57.13a3.79,3.79,0,0,1,1.47.88,7.83,7.83,0,0,1,.06,1.84c0,.13-.1-.16-.31-.26s-.59,0-.47.35a3.7,3.7,0,0,1,.22,1.22,10.73,10.73,0,0,1-.88,2.77c-.22.24-.7.24-.39.53s.38.26.39.45-.08.27-.2.22,0-.18-.2-.18-.27,0-.27.16.06.22-.12.22a.31.31,0,0,1-.31-.18C68.2,65,68.16,65,68,65s-.11,0-.14.14a.31.31,0,0,1-.16.22l-.61.31c-.18.08-.49.08-.47.24s.16.29,0,.31a1.68,1.68,0,0,1-.65,0,.28.28,0,0,0-.33,0,1.94,1.94,0,0,1-.57.12c-.12,0-.24-.16-.37-.16a.87.87,0,0,0-.35.1c-.08,0-.43.14-.43.14s-.37,0-.39-.16,0-.67,1.92-1.08a10.86,10.86,0,0,0,1.85-.43s.24-.14-.08-.41c-.14-.12-.06-.35,0-.45a7.26,7.26,0,0,0,1.18-2.63c.16-1.16,0-1.25-.06-1.43s-.22-.5-.35-.39c-.31.26,0,1.06-.12,1.67s-1.18,3-1.88,3.2a1.63,1.63,0,0,1-1.14.08c-.43-.08-.81-.1-.75-.39A8.6,8.6,0,0,1,65,62.78a7.67,7.67,0,0,0,.63-1.22,2.32,2.32,0,0,0,.1-1.08c-.08-.2-.18-.55-.43-.57s-.22.06-.18.31a3.4,3.4,0,0,1,.06.73,4.5,4.5,0,0,1-1.22,2.26.54.54,0,0,1-.71-.06,1.34,1.34,0,0,1-.24-1,5.23,5.23,0,0,1,3.1-4.65,4.14,4.14,0,0,1,3.18-.41"/><path class="cls-5" d="M63.57,66.24c0,.07-.08.49.58.45s.41-.43.33-.53-.82-.12-.91.08"/><path class="cls-5" d="M64.81,66.18c0,.11-.12.41.45.44s.38-.32.32-.47-.7-.19-.78,0"/><path class="cls-5" d="M66.11,66.19c0,.1,0,.4.24.4a.6.6,0,0,0,.42-.09c.16-.09.38-.26.52-.26s.23-.07.35,0,.17.22.38.17a5.09,5.09,0,0,0,.7-.23c.11-.05,1.6-.57,1.51-.69s-.75,0-.9.09A12.25,12.25,0,0,1,68,66a5.31,5.31,0,0,0-1,.12,1,1,0,0,1-.32.12s-.36-.31-.54,0"/><path class="cls-4" d="M50.8,40.8c-.65.33-1.23.55-1.23.73,0,.35.38,2.94-1.35,4.42s1,2.9,1,2.9.76.38.38.76-.55.5,0,.46a3.8,3.8,0,0,0,1.2-.27c.46-.17,1.23-.58,1.29-.08s-1.28.49-1.19.74.49.42,1,1A5.61,5.61,0,0,1,53,53.65c.26,1.18.74.36,1-.06s.57-1.32.9-1.27.1.84-.26,1.54-.89,1-.92,1.23a2.74,2.74,0,0,0,.72,1.5c.34.42.67,1.05,1,.76A12.87,12.87,0,0,0,57,55.82a7.48,7.48,0,0,0,.62-1.11c.21-.42,0-1.3.44-1.27s.16,1.2.08,1.5a7.06,7.06,0,0,1-1.94,2.58c-.37.3-.77.51-.4.8S57.65,60,57.65,60s.8.88,1.39.3a12.47,12.47,0,0,0,2.16-2.44A5.46,5.46,0,0,0,62,55.34c0-.59,0-.78.24-.76.47,0,.23,1.59.06,2.12A7.56,7.56,0,0,1,61,59.19a12,12,0,0,1-1.45,1.42c-.26.22-.49.36-.26.51s.88.44,1.63.83,1.29.71,1.45.63.09-.7.18-1.31c.06-.38.27-2.5,3.18-4.12a5.22,5.22,0,0,1,3.59-.49c.8.25,1.31.78,1.31.61a38.5,38.5,0,0,0-.16-3.9A27.14,27.14,0,0,0,70,50a2.81,2.81,0,0,0-.88-.05c-.35,0-.71,0-.7.09s.24,1,.1,1.15a2.67,2.67,0,0,1-2,.16A2,2,0,0,0,65.34,51a4.47,4.47,0,0,1-1.52-.16A4.58,4.58,0,0,0,62,50.8a2.34,2.34,0,0,1-1.44-.44,6.09,6.09,0,0,0-2.63-.23c-.45,0-.76.1-.73-.13.06-.43.64-1.33.22-1.74s-.85-.35-1.19-.43c-.19,0-.25-.15-.34-.53s-.21-.77-.5-.77-.69.36-.83.09.12-1.07-.31-1.44S53.25,45,53,45s-.69-.06-.32-.48a16.68,16.68,0,0,0,2.42-3.58c.35-1.36-1.26-1.29-2.38-1a11.06,11.06,0,0,0-1.94.88"/><path class="cls-5" d="M42.79,46.65c-.36-.16-2.55,1.72-5,4.06-3.39,3.2-7,7.15-6.92,9.67,0,.82,1.15,0,1.72-.35,1.6-.93,4.43-3.83,7.53-6.4a18.77,18.77,0,0,1,2.14-1.34c.83-.52,1.83-1.1,2.5-1.57s1.18-.73,1.4-1.18,0-1.4.45-1.49.84.31.59,1.18a5.48,5.48,0,0,1-1.49,1.57L43,52.48c-.37.23-.73.46-.42.39,2.27-.45,5.3-2.58,6-3.08s.42-.61.78-.59c.16,0,.37.09.43.09s.33,0,.49-.62.36-.9.17-1.07-.73-.53-1.09-.84-.78-1.09-.93-1-.73.59-1.15.9a4.4,4.4,0,0,1-2.55,1.12c-1-.08-1.6-1-1.91-1.15"/><path class="cls-4" d="M61.41,37.41c-1-.94-2.85-1-4.48-1-1.8,0-2.8.34-3.62,2.68,0,0,1.53-2.65,2.15-1.81,1.47,2,.59,6.94.59,9.28C56.06,47.17,58,48,58,48a50.86,50.86,0,0,1,2.14-4.82c.8-1.54,1.87-2.85,2.09-3.33a2.32,2.32,0,0,0-.82-2.42"/><path class="cls-4" d="M74.55,65.24A80.79,80.79,0,0,0,75.8,51.33c.08-5.43-.34-10.31-2.15-13.11A3.71,3.71,0,0,0,72,36.71c-1.61-.68-4.6-.2-5.16,0a20.25,20.25,0,0,1,1.92,4.53C71.12,48.3,71.47,59.62,71.54,68a30,30,0,0,1-.85,8.34,44.32,44.32,0,0,0,3.86-11.05"/><path class="cls-3" d="M75.44,73.63a2.54,2.54,0,0,1,1.84.77,2.46,2.46,0,0,1,.54.82,2.65,2.65,0,0,1,0,2,2.41,2.41,0,0,1-.56.82,2.59,2.59,0,0,1-.84.55,2.53,2.53,0,0,1-1,.19,2.47,2.47,0,0,1-1-.2,2.61,2.61,0,0,1-.84-.57,2.52,2.52,0,0,1-.73-1.78,2.51,2.51,0,0,1,.09-.68,2.73,2.73,0,0,1,.28-.65,2.49,2.49,0,0,1,2.18-1.24m0,.43a2.12,2.12,0,0,0-.81.15,2.07,2.07,0,0,0-.67.45,2.23,2.23,0,0,0-.48.71,2.1,2.1,0,0,0,0,1.62,2,2,0,0,0,.46.68,2.15,2.15,0,0,0,.7.48,2.09,2.09,0,0,0,.82.16,2.14,2.14,0,0,0,.81-.16,2.32,2.32,0,0,0,.71-.46,2.07,2.07,0,0,0,.47-.67,2,2,0,0,0,.16-.79,2.26,2.26,0,0,0-.15-.84A2.07,2.07,0,0,0,77,74.7a2.09,2.09,0,0,0-.7-.48,2.17,2.17,0,0,0-.83-.16m-1.07.66h1.11a1.66,1.66,0,0,1,.92.21.68.68,0,0,1,.31.61.72.72,0,0,1-.16.48.83.83,0,0,1-.46.27l.64,1.28h-.78l-.55-1.17h-.34v1.17h-.68Zm.68.44V76h.34a.83.83,0,0,0,.45-.1.33.33,0,0,0,.14-.3.36.36,0,0,0-.15-.31.89.89,0,0,0-.47-.1Z"/><path class="cls-2" d="M101.23,20.69V5.16h-5.8V7.68a6.13,6.13,0,0,0-5.66-3.14c-3.72,0-7,3.19-7,9.48s3.92,9.72,7.49,9.77,5.61-3.48,5.61-3.48.24,4.58-3.63,5.08a10.12,10.12,0,0,1-7.47-2V28.2s2.3,2,7.76,2c4.23,0,6.82-2.13,7.74-4A13.09,13.09,0,0,0,101.23,20.69Zm-9.55-2.89c-1.36,0-2.45-1.63-2.45-3.63s1.1-3.63,2.45-3.63,2.45,1.63,2.45,3.63S93,17.79,91.68,17.79Z"/></svg>